<?xml version="1.0" encoding="UTF-8" standalone="no"?>


<svg width="22.991604mm" height="22.500824mm" viewBox="0 0 22.991604 22.500824" version="1.1" id="svg1" xml:space="preserve" xmlns:xlink="http://www.w3.org/1999/xlink" xmlns="http://www.w3.org/2000/svg" xmlns:svg="http://www.w3.org/2000/svg"><defs id="defs1"></defs><g id="layer1" style="display:none" transform="translate(-141.81665,-190.76458)"><image width="270.93332" height="270.93332" preserveAspectRatio="none" id="image1" x="53.3228" y="-38.500988" transform="rotate(18.065529)" style="display:none"></image><path style="fill:#000000;stroke-width:4.09223" d="m -31.355715,269.2697 c 0.0034,-0.76595 5.699218,-8.60884 12.657472,-17.42866 10.9635821,-13.89674 12.9792221,-15.95378 15.1089021,-15.41926 l 6.35244,16.56766 c -0.87131,1.04213 -4.18396,5.30542 -7.36146,9.47393 l -5.7772561,7.57919 -10.493105,0.30978 c -7.993226,0.23612 -10.491649,-0.0205 -10.487005,-1.08273 z M 0.28265519,251.27285 c 1.08964001,-0.79676 -4.47473609,-12.34793 -4.81936609,-12.69254 -0.34465,-0.34456 -1.52714,0.65047 -2.6278,2.21137 -1.10066,1.5609 -4.9476411,6.58833 -8.5488561,11.17208 -3.601211,4.58379 -7.922316,10.16126 -9.602456,12.3944 l -3.0548,4.06027 h 8.200379 8.200374 z m 17.76832081,17.6806 c -0.89678,-0.89682 -1.92459,-2.55712 -2.28403,-3.68956 -0.35942,-1.13249 -1.36581,-2.33237 -2.2364,-2.66646 -1.728957,-0.66347 -2.205157,-3.92359 -0.57311,-3.92359 0.55537,0 1.31905,-0.97444 1.69706,-2.16549 0.378,-1.191 1.37986,-2.16545 2.22631,-2.16545 1.00603,0 1.45608,-1.00214 1.29953,-2.89366 -0.13172,-1.59151 0.35664,-3.09237 1.0852,-3.33521 1.03957,-0.34661 1.03547,-0.75227 -0.0192,-1.88517 -0.73907,-0.79397 -2.44094,-2.87962 -3.78194,-4.63478 -1.90107,-2.48816 -3.059417,-3.07241 -5.258167,-2.65209 -2.9933399,0.57221 -4.7095699,-1.02016 -4.7385399,-4.39654 -0.011,-1.2744 1.76184,-2.72174 5.2065399,-4.25085 4.816567,-2.13806 5.083067,-2.45116 3.423877,-4.02274 -0.98958,-0.93733 -2.730937,-2.24455 -3.869697,-2.90496 -2.8372999,-1.64548 -2.6012699,-4.96711 0.46147,-6.49405 1.5674,-0.78141 2.077337,-1.54326 1.33861,-1.99983 -1.28336,-0.79316 3.594597,-8.32565 8.183197,-12.63645 2.267058,-2.12976 2.855308,-2.24013 5.213688,-0.97796 1.87877,1.0055 4.74384,1.20905 9.77011,0.69408 5.76237,-0.59038 7.2288,-0.42375 7.7284,0.8782 0.5806,1.51302 -15.29509,26.09404 -18.65244,28.88041 -1.81525,1.50651 -4.557008,0.56051 -5.500358,-1.89782 -0.46832,-1.22043 0.0875,-2.36826 1.64866,-3.40486 1.295328,-0.86007 2.355148,-2.19458 2.355148,-2.96556 0,-0.77102 0.60904,-1.64758 1.35342,-1.94795 0.80853,-0.32615 0.59056,-0.58052 -0.54137,-0.63159 -2.341848,-0.10558 -2.606058,-4.41642 -0.2707,-4.41642 0.89326,0 1.62411,-0.48722 1.62411,-1.08272 0,-0.59551 0.94571,-1.08277 2.10157,-1.08277 1.15586,0 2.36431,-0.4251 2.68543,-0.94465 0.32111,-0.51959 -1.72086,-0.87496 -4.53774,-0.78972 -5.060608,0.15305 -5.117688,0.19561 -4.794828,3.553 0.17973,1.86888 -0.18571,3.71469 -0.81205,4.10181 -0.62634,0.38713 -1.16019,2.01494 -1.18633,3.61741 -0.0262,1.60252 -0.69957,4.74077 -1.49652,6.97391 -1.41359,3.96107 -1.38598,4.06027 1.13026,4.06027 2.83267,0 3.07532,0.71974 1.57397,4.66862 -0.82439,2.16832 -0.67827,2.61936 0.81205,2.50662 1.464338,-0.1109 1.761618,0.70378 1.530438,4.19348 -0.15779,2.38205 0.30692,5.45891 1.0327,6.83755 1.07423,2.04047 1.03367,2.68327 -0.21815,3.45695 -0.91222,0.56379 -2.065068,0.51276 -2.834048,-0.12563 -0.90508,-0.75113 -1.9785,-0.34334 -3.55676,1.35052 -1.70667,1.83189 -1.92851,2.63708 -0.9055,3.28664 2.3052,1.46367 2.97652,1.0046 3.04771,-2.08401 0.0643,-2.78739 0.12919,-2.82737 1.01674,-0.6255 0.68047,1.68813 1.57799,2.18734 3.179578,1.7685 2.51598,-0.65791 3.08087,1.63476 0.93219,3.78343 -1.01055,1.01058 -1.01055,1.29929 0,1.29929 0.7146,0 1.29928,0.66327 1.29928,1.47398 0,0.98835 0.89173,1.30346 2.70685,0.95648 1.48876,-0.28441 2.70684,-0.98071 2.70684,-1.54691 0,-0.5662 -1.03548,-0.70084 -2.30107,-0.29914 -1.69256,0.53719 -2.0778,0.36912 -1.45681,-0.63569 0.54866,-0.88777 0.40656,-1.09553 -0.40579,-0.5935 -0.68751,0.42494 -1.25003,0.25659 -1.25003,-0.37403 0,-0.63065 1.4617,-1.14664 3.24821,-1.14664 1.78652,0 3.24822,-0.48722 3.24822,-1.08272 0,-0.59551 0.91663,-1.08273 2.03696,-1.08273 1.99087,0 7.70767,6.3399 7.70767,8.54774 0,1.55394 -16.55514,1.28242 -17.57789,-0.28809 -0.56657,-0.8701 -0.80025,-0.8322 -0.81206,0.13176 -0.0229,1.86103 -2.762668,1.70086 -4.740628,-0.27704 z m 3.19711,-2.29632 c -0.37174,-0.96875 -0.1206,-2.43042 0.558098,-3.24821 0.94451,-1.13805 0.8854,-1.48298 -0.252,-1.4703 -3.284508,0.0368 -4.237148,1.60379 -2.490648,4.09727 1.95902,2.79692 3.149318,3.13539 2.18455,0.62124 z m 15.634788,-0.34375 c -1.41666,-2.64706 -2.96786,-3.62952 -4.36614,-2.76532 -1.73667,1.07331 0.85741,4.87049 3.32733,4.87049 1.80928,0 1.98015,-0.3462 1.03881,-2.10517 z M 17.258976,237.17709 c -1.60018,-0.55 -2.41305,0.56538 -1.49481,2.05115 0.58213,0.94191 1.0211,0.89055 1.69782,-0.19888 0.53609,-0.86285 0.45233,-1.62724 -0.20301,-1.85248 z m -6.021907,-2.54676 c 0.34358,-1.3139 0.40042,-2.61318 0.12628,-2.88732 -0.27413,-0.27418 -0.49842,0.0548 -0.49842,0.73079 0,0.67608 -0.73085,0.94874 -1.6240999,0.60598 -1.12697,-0.43247 -1.62411,0.0753 -1.62411,1.65809 0,3.02085 2.8241999,2.93691 3.6203499,-0.10763 z m 3.958797,-4.23538 c 0,-0.59551 -0.48723,-0.78158 -1.08273,-0.41356 -0.59551,0.36789 -1.08274,1.15642 -1.08274,1.75192 0,0.5955 0.48723,0.78162 1.08274,0.41356 0.5955,-0.36789 1.08273,-1.15638 1.08273,-1.75192 z m 9.999558,-3.51409 c 1.34855,-2.00306 5.43617,-7.98411 9.0836,-13.29129 l 6.63168,-9.64932 -7.45546,0.42125 c -4.61488,0.26068 -8.02443,-0.0512 -8.94882,-0.81812 -1.19108,-0.98852 -2.41059,-0.0876 -6.024648,4.4517 -2.62915,3.30207 -4.00672,5.86589 -3.28166,6.10758 0.68729,0.22916 1.942,-0.57193 2.78824,-1.78012 1.25305,-1.78896 2.75667,-2.20253 8.101458,-2.22806 6.44755,-0.0327 6.55692,0.0164 6.22566,2.79888 -0.26759,2.24619 -1.23094,3.1049 -4.66813,4.16123 -2.97901,0.91552 -3.57048,1.36644 -1.89479,1.44456 3.40786,0.15878 3.03877,2.28064 -1.20209,6.9106 -2.00104,2.18459 -3.381528,4.22875 -3.06775,4.54254 0.92478,0.92476 1.14479,0.74278 3.71271,-3.07143 z m -9.143548,-4.7287 c -0.2164,-1.05346 0.32414,-2.4625 1.20119,-3.13117 1.22773,-0.93606 0.63443,-1.05972 -2.57851,-0.53747 -2.295237,0.37321 -4.375577,1.28561 -4.622987,2.02782 -0.4768099,1.43044 2.47988,1.91901 3.252517,0.53748 0.24979,-0.44663 0.30565,-0.20298 0.1242,0.54136 -0.18145,0.74437 0.142,1.35342 0.71882,1.35342 0.57681,0 1.08722,0.85266 1.13423,1.89479 0.0495,1.09725 0.31245,1.33378 0.62473,0.56198 0.29661,-0.73304 0.36221,-2.19474 0.14581,-3.24821 z m 12.128238,36.50572 c -0.92031,-1.71964 -0.81082,-2.31846 0.51706,-2.82798 2.51378,-0.96462 5.26041,1.65281 3.70326,3.52906 -1.69822,2.04624 -2.85263,1.85444 -4.22032,-0.70108 z m 91.639826,0.24267 c -0.43884,-0.71009 -1.02948,-26.37727 -0.76081,-33.06206 0.064,-1.59327 0.86855,-1.93211 4.13973,-1.74362 2.23317,0.12891 5.37429,-0.12399 6.98032,-0.5615 4.0665,-1.1078 10.059,1.12054 12.39215,4.60811 1.36107,2.03453 1.96386,5.00643 1.98346,9.77876 0.0246,6.43287 -0.19683,7.05693 -3.61847,10.11416 -3.07994,2.7519 -4.37067,3.20066 -8.30564,2.88772 -4.59783,-0.36584 -4.65373,-0.3286 -4.25413,2.82901 0.22262,1.75974 -0.11908,3.83094 -0.75947,4.60261 -1.26925,1.52935 -6.94394,1.92732 -7.79714,0.54681 z m 5.8151,-7.2737 v -4.88179 l 5.77578,0.67882 c 5.39074,0.6336 5.93207,0.48014 8.12051,-2.30201 4.45178,-5.65952 2.12072,-17.04689 -3.79346,-18.53123 -1.56782,-0.39367 -4.50596,-0.11704 -6.52916,0.61474 -2.85523,1.03247 -4.02745,1.04061 -5.2374,0.0368 -2.48669,-2.06376 -3.02718,1.08321 -2.29567,13.36617 0.36135,6.06555 0.66904,12.12456 0.68398,13.46444 0.0164,1.43158 0.69695,2.43614 1.6513,2.43614 1.20352,0 1.62412,-1.26421 1.62412,-4.88174 z m 1.29929,-7.24489 c -0.71463,-0.71459 -1.29929,-4.10807 -1.29929,-7.54105 0,-5.18388 0.37608,-6.44306 2.21902,-7.42937 3.48482,-1.86503 7.83769,-0.85331 9.44013,2.19413 1.72561,3.28165 1.08599,11.79824 -0.98455,13.11017 -2.16115,1.3693 -7.87563,1.1658 -9.37531,-0.33392 z m 7.14606,-2.16549 c 1.38686,-1.38686 1.72521,-6.07558 0.64207,-8.89815 -0.85196,-2.22016 -5.41279,-2.22016 -6.26476,0 -0.91977,2.39694 -0.82245,4.20816 0.39859,7.42012 1.13719,2.99109 3.14328,3.55868 5.22394,1.47803 z M 7.1071191,255.48734 c -1.86971,-3.61565 -0.82208,-4.95377 2.9554399,-3.77501 3.208537,1.00125 4.131797,2.62141 2.854197,5.00861 -1.544617,2.88617 -3.9425169,2.37698 -5.8096369,-1.2336 z m 4.8405399,-0.0246 c 0,-0.57454 -1.01134,-1.5859 -2.2474299,-2.24741 -2.0562,-1.10044 -2.14508,-1.01156 -1.04464,1.04463 1.23652,2.31043 3.2920699,3.06148 3.2920699,1.20278 z m 12.126655,-2.4201 c -2.16085,-2.16086 -1.54052,-4.2993 1.13687,-3.91905 1.56559,0.22221 2.5598,1.21658 2.78215,2.78214 0.38025,2.67743 -1.75817,3.29773 -3.91902,1.13691 z m -56.132612,-2.50404 c -0.345671,-0.90086 -0.110532,-2.26206 0.522578,-3.0249 0.879536,-1.05976 -1.381137,-3.3598 -9.582445,-9.74925 -10.770665,-8.39121 -12.163212,-10.65639 -7.467418,-12.14678 2.464294,-0.78215 2.453859,-0.59088 0.441343,-8.08879 -2.741981,-10.21557 -2.791002,-10.13941 5.96874,-9.27623 l 7.592846,0.74818 0.667533,-3.33767 c 0.367155,-1.83569 1.185729,-3.65792 1.819084,-4.04935 2.145235,-1.32584 25.4200461,26.6314 24.0357461,28.87125 -0.3805,0.61567 -2.7640071,1.11943 -5.2966451,1.11943 -3.870349,0 -4.991384,-0.52291 -7.028568,-3.27833 -3.246815,-4.39154 -4.951259,-3.05805 -2.15308,1.68448 1.933634,3.27731 2.763998,3.75929 6.476014,3.75929 2.731423,0 4.475152,0.56596 4.863722,1.57854 0.544996,1.42025 -8.006537,13.96189 -10.909196,15.99937 -2.133171,1.49739 -9.28843,0.91543 -9.950254,-0.80924 z m 13.131447,-6.75333 c 2.688106,-3.42414 4.887772,-6.59116 4.888144,-7.03779 3.77e-4,-0.44662 -1.703732,-0.81206 -3.786908,-0.81206 -3.344276,0 -4.164892,-0.60197 -7.011155,-5.143 -2.948053,-4.70345 -3.069343,-5.25868 -1.41915,-6.49642 2.93768,-2.20342 5.47464,-1.56401 7.517811,1.89479 1.416342,2.39768 2.724912,3.24821 4.997432,3.24821 3.9386601,0 3.322505,-0.99625 -11.76555,-19.02389 l -5.513147,-6.58727 -0.983274,3.33165 -0.983274,3.33161 -7.437361,-0.30487 c -5.694323,-0.23326 -7.312634,0.0205 -6.905154,1.08272 0.292718,0.76308 1.170817,4.2414 1.951341,7.72957 1.365493,6.10247 1.328671,6.41041 -0.97425,8.14748 -2.379614,1.79498 -2.334039,1.85067 7.92218,9.68092 10.284472,7.85185 11.477059,9.4238 9.016276,11.88458 -1.010553,1.01058 -0.532854,1.29928 2.149642,1.29928 2.910205,0 4.21235,-0.97243 8.336397,-6.22572 z m 28.7090401,6.07443 c 0,-1.66395 3.3442569,-4.10267 5.6843669,-4.14519 2.841,-0.0516 2.38404,3.91283 -0.54137,4.69678 -3.652827,0.97894 -5.1429969,0.8191 -5.1429969,-0.55159 z m 46.8283649,0.54054 c -0.99957,-0.42076 -1.35342,-4.9338 -1.35342,-17.2619 v -16.69218 h 5.42734 5.42734 l 2.70099,6.22576 c 1.48555,3.42413 3.08539,7.14009 3.5552,8.25768 0.68241,1.62326 1.47559,0.53448 3.94382,-5.4137 3.64986,-8.79577 5.27578,-10.3565 10.34468,-9.92997 l 3.78958,0.31878 0.29816,17.05312 0.29816,17.05308 h -4.35844 -4.35844 v -8.31465 -8.31468 l -2.97753,5.8785 c -2.6076,5.14819 -3.38107,5.87853 -6.22573,5.87853 -2.83792,0 -3.61834,-0.73046 -6.17842,-5.78278 l -2.93022,-5.78277 -0.318,8.48962 c -0.30655,8.18423 -0.41537,8.49712 -3.02484,8.69841 -1.48877,0.115 -3.31589,-0.0475 -4.06027,-0.36093 z m 4.99845,-13.0106 c -0.51658,-13.61167 0.98704,-14.36726 6.18832,-3.10973 2.71868,5.88418 4.33058,8.18823 5.56068,7.94834 0.95792,-0.1866 3.06528,-3.48363 4.71449,-7.37555 3.98449,-9.40289 5.89094,-9.67556 6.80057,-0.97264 0.38541,3.68718 0.7007,8.3378 0.7007,10.33473 0,2.65062 0.48176,3.63075 1.78459,3.63075 1.56961,0 1.70082,-1.07609 1.08923,-8.93257 -0.38246,-4.91293 -0.69828,-11.49058 -0.70185,-14.61697 -0.006,-5.35857 -0.16357,-5.68435 -2.74731,-5.68435 -1.63831,0 -3.005,0.76217 -3.39754,1.89478 -2.51204,7.24792 -6.95532,16.02294 -8.24899,16.29094 -1.0252,0.21239 -2.85045,-2.71127 -5.40766,-8.66187 -3.59994,-8.37709 -4.09593,-9.00619 -7.35876,-9.3343 l -3.49865,-0.35193 0.70927,9.99208 c 0.39011,5.49567 0.70925,12.10978 0.70925,14.69808 0,3.61197 0.40685,4.70599 1.75024,4.70599 1.51838,0 1.69766,-1.38506 1.35342,-10.4559 z m 34.33841,11.41414 c -2.10737,-1.65768 -2.79041,-3.17717 -2.77791,-6.17985 0.009,-2.18992 0.37457,-4.51774 0.81206,-5.17299 1.40663,-2.10664 5.42109,-3.68101 9.386186,-3.68101 3.8937,0 5.18696,-1.42487 2.29909,-2.53305 -0.85892,-0.32942 -3.34384,-0.31019 -5.52205,0.0434 -4.154246,0.67415 -5.859586,-0.55171 -5.892546,-4.23571 -0.0115,-1.26691 1.42662,-2.24168 4.54594,-3.08161 6.030796,-1.62392 11.480816,-0.62755 14.817336,2.70897 2.43332,2.43333 2.76046,3.77984 3.16488,13.02644 0.24807,5.67196 0.0274,10.3694 -0.49017,10.43876 -0.51766,0.0696 -4.67781,0.29219 -9.24477,0.49545 -7.053666,0.31387 -8.724216,0.0368 -11.098046,-1.82882 z m 7.289626,-2.25359 c -3.589976,-0.93275 -5.210426,-3.61676 -4.034176,-6.68201 0.77567,-2.02136 4.404116,-3.20442 8.186196,-2.66908 3.32022,0.47 4.24204,6.04182 1.34949,8.15689 -1.66547,1.21781 -1.68984,1.40679 -0.18145,1.40679 0.95838,0 2.5132,0.29587 3.45516,0.65721 1.46977,0.56403 1.71266,-0.51783 1.71266,-7.62837 0,-7.35338 -0.29902,-8.58457 -2.65763,-10.94321 -2.8188,-2.81881 -9.31036,-3.63665 -12.500686,-1.5749 -1.16719,0.75432 -0.0858,1.05424 3.843716,1.06619 6.00739,0.0164 8.06639,1.32139 8.06639,5.10543 0,2.17859 -0.53574,2.49029 -4.28001,2.49029 -5.66511,0 -9.700846,1.95249 -10.483806,5.072 -1.06711,4.25171 3.96523,8.27969 8.768376,7.01843 1.85187,-0.48628 1.65219,-0.7231 -1.24424,-1.47566 z m 3.99146,-4.73501 c 0,-1.12859 -0.78981,-1.5832 -2.35134,-1.35342 -3.46638,0.51006 -3.83763,3.05281 -0.44573,3.05281 1.81955,0 2.79707,-0.59391 2.79707,-1.69939 z m 42.14261,7.26515 c -2.53351,-2.04914 -2.63458,-2.67701 -2.97142,-18.46047 l -0.34865,-16.33919 h 4.40893 4.40897 v 13.36642 c 0,11.35485 0.28523,13.62444 1.89479,15.08115 1.78695,1.61721 1.89478,1.29438 1.89478,-5.67355 0,-5.75123 0.45792,-7.89437 2.06675,-9.67204 2.95119,-3.26106 9.62628,-4.8583 14.11386,-3.37728 5.18298,1.71056 7.34164,4.65836 7.93526,10.83636 l 0.52122,5.42463 -8.52895,0.0327 c -7.8061,0.0327 -8.34746,0.17147 -6.38716,1.65339 1.51122,1.14235 3.46424,1.42066 6.6336,0.94539 3.79603,-0.56923 4.74183,-0.31674 6.1059,1.63083 1.56969,2.24103 1.73568,2.11045 6.0362,-4.74846 l 4.42211,-7.05284 -4.81778,-7.32944 c -2.64981,-4.03118 -4.81877,-7.64061 -4.82,-8.02098 -10e-4,-0.38017 1.7401,-1.0184 3.86949,-1.41788 4.41143,-0.82757 5.82812,0.0286 9.27873,5.61258 l 2.34919,3.80107 1.58898,-3.11075 c 2.67619,-5.23908 4.71278,-6.90028 8.45967,-6.90028 1.95682,0 3.87264,0.50932 4.25739,1.13183 0.38467,0.62247 -1.33705,4.55981 -3.8262,8.74964 l -4.52568,7.61786 4.97284,7.47839 c 6.31035,9.48993 6.35279,10.75259 0.36135,10.75259 -4.39952,0 -4.76676,-0.25822 -7.9943,-5.61798 l -3.38293,-5.61802 -2.43713,4.80596 c -1.34045,2.64325 -2.98074,5.16391 -3.64516,5.60141 -2.1012,1.3837 -8.28137,0.91293 -8.8916,-0.67731 -0.48792,-1.2715 -1.08793,-1.25153 -3.85387,0.1285 -4.50129,2.24557 -13.34203,1.3409 -16.3567,-1.67377 l -2.26914,-2.26918 -1.1845,2.38962 c -1.56172,3.15073 -6.03453,3.59016 -9.33893,0.91756 z m 6.58055,-2.2017 c 0,-0.53179 -0.73083,-1.24736 -1.62408,-1.59012 -1.29241,-0.49594 -1.62413,-2.81382 -1.62413,-11.34924 0,-12.32429 -0.78992,-17.53653 -2.55551,-16.86225 -1.59303,0.60839 -1.05686,27.40098 0.58797,29.38289 1.30587,1.57346 5.21575,1.88734 5.21575,0.41872 z m 21.65476,-0.0982 c 1.13015,-0.71806 -0.054,-0.95995 -3.89368,-0.79548 -6.26169,0.26845 -9.09917,-1.38756 -9.09917,-5.30984 0,-2.28703 0.51346,-2.5883 4.60164,-2.69985 2.53088,-0.0692 3.62715,-0.33147 2.43615,-0.58356 -1.19101,-0.25167 -3.26176,-0.69183 -4.60164,-0.97775 -2.70926,-0.57811 -3.37278,-4.52254 -1.13686,-6.75845 2.39158,-2.39158 8.21757,-1.57076 10.1872,1.43531 1.66829,2.54611 1.66734,2.87205 -0.0123,4.72952 -1.71379,1.89372 -1.66611,1.96836 0.94003,1.47013 6.38498,-1.22055 0.89554,-11.09973 -6.1677,-11.09973 -4.73885,0 -7.95878,2.38794 -9.49447,7.04114 -1.53471,4.65017 0.0872,10.54446 3.57309,12.98613 2.59247,1.81585 10.16699,2.1521 12.66907,0.56243 z m 14.88795,-4.33306 c 1.70683,-3.09475 3.74607,-5.40473 4.77912,-5.41365 1.00587,-0.008 3.27354,2.37607 5.13297,5.39806 1.83209,2.97751 4.0836,5.4137 5.00329,5.4137 1.94749,0 1.152,-1.87948 -3.9779,-9.39835 -1.6984,-2.4893 -3.08796,-5.02289 -3.08796,-5.63013 0,-0.60729 1.7027,-3.9301 3.7838,-7.38411 2.08107,-3.45397 3.28275,-6.44781 2.67043,-6.65299 -1.7446,-0.58454 -3.78196,1.6026 -5.92985,6.36579 -2.36691,5.24887 -4.39592,5.23839 -7.29248,-0.0368 -2.64432,-4.8166 -4.60946,-6.85441 -6.12325,-6.34979 -0.68169,0.22712 0.70132,3.29854 3.22333,7.15838 l 4.41728,6.76045 -4.04448,6.77216 c -2.2245,3.72471 -4.23882,7.13759 -4.47633,7.58422 -0.23735,0.44662 0.32778,0.81206 1.25648,0.81206 0.92857,0 3.02809,-2.42915 4.66555,-5.39811 z m -19.21893,-10.30158 c -1.67736,-2.02116 -2.3036,-2.02554 -4.93605,-0.0327 -1.96575,1.48687 -1.8305,1.59192 2.09113,1.62413 3.60595,0.0286 4.00417,-0.19275 2.84492,-1.58967 z M 0.39392915,229.88868 c -0.92424,-2.40857 0.40575,-3.13437 2.59498995,-1.41608 1.73089,1.35854 1.77961,1.32707 0.4924,-0.31797 -1.82085,-2.32688 0.1668,-6.59246 2.83265,-6.07905 2.31755,0.44634 4.3240599,5.85778 2.75411,7.42773 -1.9439,1.94393 -7.97328,2.21169 -8.67414995,0.38508 z m 7.22278995,-3.09267 c 0,-0.85814 -0.45357,-1.84052 -1.00792,-2.18312 -1.28726,-0.79558 -2.58191,1.23188 -1.69893,2.66056 0.99564,1.61099 2.70685,1.30915 2.70685,-0.47744 z m -10.82737,-1.44173 c -0.89326,-0.25454 -4.72032,-4.61875 -8.5045711,-9.69852 -6.345864,-8.51835 -7.037321,-10.00158 -8.899271,-19.08961 -1.11639,-5.44906 -1.605318,-10.26713 -1.093784,-10.77866 0.511529,-0.51153 2.383906,-0.17065 4.188724,0.76271 3.869032,2.00073 3.97723,1.90632 8.8560021,-7.72921 1.88452,-3.72189 4.00501,-6.76708 4.71219,-6.76708 0.70719,0 2.38576,2.07071 3.73017005,4.60159 1.34439995,2.53093 3.53610995,5.95236 4.87044995,7.60321 2.26356,2.80052 2.65906,2.91261 5.9036599,1.67303 1.91266,-0.73071 3.725727,-1.08039 4.029047,-0.77707 0.30331,0.30323 0.009,5.15359 -0.65293,10.77845 -1.18091,10.02753 -1.331457,10.40647 -7.7191269,19.43025 -7.76986,10.97636 -7.38677,10.57008 -9.42056,9.99091 z m 9.3919,-14.13847 c 3.3392,-4.83645 4.1831399,-7.25 5.2086099,-14.89577 0.79469,-5.92511 0.84127,-8.74167 0.13287,-8.03326 -0.59999,0.6 -2.3406699,1.09091 -3.8681899,1.09091 -2.23858,0 -3.61422,-1.33706 -7.09192995,-6.89292 l -4.31462005,-6.89292 -4.14295,7.43428 c -4.1694641,7.48187 -5.5627711,8.4005 -9.5249251,6.28002 -2.369162,-1.26793 -2.367108,-2.23542 -0.02333,10.93924 0.646606,3.63448 2.682197,7.23438 7.8239261,13.83638 l 6.949929,8.92373 2.43283005,-3.00902 c 1.33806995,-1.65494 4.22602995,-5.60624 6.41769995,-8.78067 z" id="path2"></path></g><g id="layer3" transform="translate(-141.81665,-190.76458)"><g id="g1" transform="translate(1.3229167,-6.35)"><path style="display:inline;fill:#0cc19e;fill-opacity:1;stroke-width:0.264583" d="m 156.38967,215.52343 2.46522,-0.0273 -0.88867,-1.20805 5.51912,-4.2643 -1.54349,-0.79512 1.07576,-4.16273 -3.92083,0.45402 -0.5419,-2.08302 -6.18624,7.04655 z" id="path3-7-4-6-7-7-0"></path><path style="display:inline;mix-blend-mode:normal;fill:#0cc19e;fill-opacity:1;stroke-width:0.264583" d="m 151.88017,209.90842 -3.49989,-4.51752 -0.44267,-5.2555 1.86051,0.8556 2.41513,-3.87642 2.21434,4.0224 2.06932,-0.90804 -0.62976,5.04103 z" id="path4-6-7-8-0-0-3"></path><path style="display:inline;mix-blend-mode:normal;fill:#0cc19e;fill-opacity:1;stroke-width:0.264583" d="m 158.5979,219.60169 h -5.00794 l -3.50224,-4.50618 -3.80224,4.49649 -5.21511,0.0234 6.21669,-7.6215 -6.79332,-8.66891 5.27157,-0.0194 z" id="path5-0-4-5-0-3-9"></path></g></g></svg>