<svg width="802" height="255" viewBox="0 0 802 255" fill="none" xmlns="http://www.w3.org/2000/svg">
<g clip-path="url(#clip0_2006_196)">
<g clip-path="url(#clip1_2006_196)">
<path d="M3.52393 39.3251L79.6547 1.74202C84.4143 -0.618373 89.9976 -0.57254 94.7344 1.83369L164.389 37.2167C170.293 40.2188 174 46.2687 174 52.8916V95.4475C174 102.964 169.767 109.862 163.085 113.277L93.4529 148.637C89.2654 150.768 84.277 147.72 84.277 142.999V130.028C84.277 127.645 85.627 125.445 87.7551 124.391L143.841 96.1121C145.969 95.035 147.296 92.8809 147.319 90.4976L147.479 59.2166C147.479 56.8103 146.129 54.6103 144.001 53.5333L89.8146 26.4002C88.0526 25.5064 85.9703 25.5064 84.1854 26.4002L9.10731 63.6853C4.91978 65.7707 0 62.7228 0 58.0249V44.9854C0 42.5792 1.37296 40.3792 3.52393 39.3251Z" fill="url(#paint0_linear_2006_196)"></path>
<path d="M84.2312 62.31L7.71147 100.741C2.99763 103.124 0 107.96 0 113.253V204.85C0 209.892 2.81457 214.498 7.2767 216.813L79.7691 254.258C84.3227 256.596 89.7002 256.619 94.2767 254.304L166.151 217.707C170.979 215.255 174 210.282 174 204.873V137.247C174 130.991 167.433 126.912 161.826 129.684L89.7917 165.503C86.5424 167.13 84.4829 170.453 84.4829 174.074V185.692C84.4829 190.115 89.1281 192.98 93.0639 191.009L139.996 167.497C143.429 165.778 147.479 168.276 147.479 172.126V195.111C147.479 197.792 145.969 200.267 143.589 201.482L91.2562 228.225C88.5789 229.6 85.3982 229.6 82.6981 228.225L31.3264 202.146C28.3517 200.634 26.4524 197.563 26.4524 194.217V122.832C26.4524 120.495 27.7567 118.364 29.839 117.31L85.9245 88.9389C87.9611 87.9077 89.2425 85.8223 89.2196 83.5306L89.0823 65.312C89.0823 62.8141 86.4279 61.187 84.1854 62.31H84.2312Z" fill="url(#paint1_linear_2006_196)"></path>
</g>
<path d="M291.743 111.46C291.039 109.353 290.335 107.479 289.161 105.84C287.988 104.201 286.579 102.796 285.171 101.625C283.528 100.454 281.651 99.5179 279.773 99.0495C277.66 98.3471 275.548 98.1129 272.966 98.1129C268.272 98.1129 264.282 99.2837 260.761 101.625C257.241 103.967 254.424 107.245 252.547 111.694C250.669 116.143 249.73 121.295 249.73 127.617C249.73 133.939 250.669 139.325 252.547 143.54C254.424 147.755 257.241 151.267 260.761 153.609C264.282 155.95 268.507 157.121 273.201 157.121C277.426 157.121 281.181 156.419 284.232 154.78C287.284 153.14 289.631 151.033 291.274 148.223C292.917 145.413 293.621 142.135 293.621 138.154L297.611 138.623H274.375V124.339H312.163V135.813C312.163 143.774 310.52 150.565 307.234 156.185C303.948 161.804 299.254 166.253 293.386 169.297C287.518 172.342 280.712 173.981 273.201 173.981C264.752 173.981 257.241 172.107 250.904 168.361C244.567 164.614 239.403 159.229 235.882 152.438C232.362 145.413 230.484 137.218 230.484 127.851C230.484 120.592 231.423 114.036 233.77 108.182C236.117 102.328 238.934 97.6446 242.689 93.6639C246.444 89.6831 251.138 86.6391 256.067 84.5316C260.996 82.4242 266.864 81.4875 272.732 81.4875C277.895 81.4875 282.589 82.19 287.049 83.8291C291.508 85.4683 295.498 87.3415 298.784 90.1515C302.305 92.9614 305.121 96.0055 307.234 99.752C309.346 103.499 310.754 107.479 311.459 111.928L291.743 111.46Z" fill="#1D1D1B"></path>
<path d="M356.757 173.981C349.951 173.981 344.083 172.576 338.919 169.532C333.756 166.488 330.001 162.507 327.419 157.355C324.602 152.204 323.429 146.116 323.429 139.091C323.429 132.066 324.837 125.978 327.419 120.826C330.001 115.675 333.991 111.46 338.919 108.65C343.848 105.84 349.716 104.201 356.757 104.201C363.799 104.201 369.432 105.606 374.595 108.65C379.759 111.694 383.514 115.675 386.096 120.826C388.678 125.978 390.086 132.3 390.086 139.091C390.086 145.881 388.678 152.204 386.096 157.355C383.279 162.507 379.524 166.722 374.595 169.532C369.432 172.576 363.564 173.981 356.757 173.981ZM356.757 159.463C359.809 159.463 362.39 158.526 364.503 156.887C366.615 155.248 368.258 152.672 369.197 149.628C370.37 146.584 370.84 143.072 370.84 139.091C370.84 135.11 370.37 131.598 369.197 128.554C368.023 125.51 366.615 122.934 364.503 121.295C362.39 119.421 359.809 118.485 356.757 118.485C353.706 118.485 350.89 119.421 348.777 121.295C346.665 123.168 345.022 125.51 343.848 128.554C342.675 131.598 342.205 135.11 342.205 139.091C342.205 143.072 342.675 146.584 343.848 149.628C345.022 152.672 346.43 155.248 348.777 156.887C351.124 158.526 353.706 159.463 356.757 159.463Z" fill="#1D1D1B"></path>
<path d="M421.302 82.4242V172.81H402.526V82.4242H421.302Z" fill="#1D1D1B"></path>
<path d="M461.437 173.746C456.274 173.746 451.58 172.342 447.355 169.766C443.13 167.19 439.844 163.209 437.497 158.058C435.15 152.906 433.742 146.584 433.742 138.857C433.742 131.129 434.915 124.573 437.497 119.421C440.079 114.27 443.365 110.523 447.59 107.713C451.814 105.138 456.274 103.733 461.437 103.733C465.193 103.733 468.479 104.435 471.061 105.606C473.642 106.777 475.755 108.416 477.163 110.289C478.806 112.162 479.979 114.036 480.684 115.909H481.153V82.4242H499.93V172.81H481.388V162.039H480.684C479.745 163.912 478.571 165.785 476.928 167.658C475.285 169.532 473.173 170.937 470.826 172.107C468.009 173.044 464.958 173.746 461.437 173.746ZM467.305 158.76C470.356 158.76 472.938 158.058 475.051 156.185C477.163 154.311 478.806 152.204 479.979 149.16C481.153 146.116 481.622 142.603 481.622 138.623C481.622 134.642 481.153 131.129 479.979 128.085C478.806 125.041 477.163 122.934 475.051 121.295C472.938 119.656 470.356 118.953 467.305 118.953C464.254 118.953 461.672 119.89 459.56 121.529C457.447 123.168 455.804 125.51 454.631 128.554C453.457 131.598 452.988 134.876 452.988 138.857C452.988 142.837 453.457 146.35 454.631 149.394C455.804 152.438 457.447 154.78 459.56 156.419C461.672 158.058 464.254 158.76 467.305 158.76Z" fill="#1D1D1B"></path>
<path d="M576.68 172.576H544.524V82.4242H576.914C586.068 82.4242 593.813 84.2975 600.385 87.8099C606.957 91.3223 612.121 96.7079 615.641 103.264C619.162 109.821 621.039 118.016 621.039 127.383C621.039 136.749 619.162 144.945 615.641 151.735C612.121 158.526 606.957 163.678 600.385 167.424C593.813 171.171 585.833 172.576 576.68 172.576ZM563.771 156.419H575.975C581.608 156.419 586.303 155.482 590.293 153.375C594.048 151.501 597.099 148.223 598.977 144.008C600.855 139.793 602.028 134.174 602.028 127.617C602.028 121.061 601.089 115.441 599.212 111.226C597.334 107.011 594.283 103.967 590.527 101.859C586.772 99.752 581.843 98.8154 576.21 98.8154H564.005V156.419H563.771Z" fill="#1D1D1B"></path>
<path d="M645.684 172.576H625.264L656.481 82.1901H681.125L712.341 172.576H691.922L669.155 103.03H668.451L645.684 172.576ZM644.276 137.218H692.626V152.204H644.276C644.276 151.97 644.276 137.218 644.276 137.218Z" fill="#1D1D1B"></path>
<path d="M802 127.383C802 137.218 800.122 145.647 796.367 152.438C792.612 159.229 787.448 164.614 781.111 168.361C774.774 172.107 767.498 173.747 759.518 173.747C751.538 173.747 744.262 171.873 737.924 168.361C731.587 164.614 726.424 159.463 722.668 152.438C718.913 145.413 717.035 137.218 717.035 127.383C717.035 117.548 718.913 109.118 722.668 102.328C726.424 95.303 731.353 90.1515 737.924 86.405C744.496 82.6584 751.538 81.0193 759.518 81.0193C767.498 81.0193 774.774 82.8926 781.111 86.405C787.448 89.9174 792.612 95.303 796.367 102.328C800.122 109.353 802 117.548 802 127.383ZM782.754 127.383C782.754 121.061 781.815 115.675 779.937 111.226C778.06 106.777 775.243 103.499 771.957 101.157C768.671 98.8154 764.447 97.6446 759.752 97.6446C755.058 97.6446 751.068 98.8154 747.548 101.157C744.027 103.499 741.445 106.777 739.567 111.226C737.69 115.675 736.751 121.061 736.751 127.383C736.751 133.705 737.69 139.091 739.567 143.54C741.445 147.989 744.262 151.267 747.548 153.609C750.833 155.95 755.058 156.887 759.752 156.887C764.447 156.887 768.437 155.716 771.957 153.609C775.478 151.501 778.06 147.989 779.937 143.54C781.815 139.091 782.754 133.939 782.754 127.383Z" fill="#1D1D1B"></path>
</g>
<defs>
<linearGradient id="paint0_linear_2006_196" x1="-133.04" y1="293.4" x2="270.725" y2="-109.747" gradientUnits="userSpaceOnUse">
<stop></stop>
<stop offset="0.06" stop-color="#232323"></stop>
<stop offset="0.1" stop-color="#4F4F4F"></stop>
<stop offset="0.16" stop-color="#939393"></stop>
<stop offset="0.19" stop-color="#AEAEAE"></stop>
<stop offset="0.24" stop-color="#A4A4A4"></stop>
<stop offset="0.34" stop-color="#898989"></stop>
<stop offset="0.35" stop-color="#878787"></stop>
<stop offset="0.36" stop-color="#7B7B7B"></stop>
<stop offset="0.42" stop-color="#454545"></stop>
<stop offset="0.44" stop-color="#303030"></stop>
<stop offset="0.46" stop-color="#3F3F3F"></stop>
<stop offset="0.49" stop-color="#686868"></stop>
<stop offset="0.53" stop-color="#B0B0B0"></stop>
<stop offset="0.65" stop-color="#AFAFAF"></stop>
<stop offset="0.67" stop-color="#B6B6B6"></stop>
<stop offset="0.7" stop-color="#C9C9C9"></stop>
<stop offset="0.74" stop-color="#E9E9E9"></stop>
<stop offset="0.75" stop-color="#EDEDED"></stop>
<stop offset="0.83" stop-color="#EEEEEE"></stop>
<stop offset="0.86" stop-color="#C9C9C9"></stop>
<stop offset="0.9" stop-color="#939393"></stop>
<stop offset="0.93" stop-color="#7E7E7E"></stop>
</linearGradient>
<linearGradient id="paint1_linear_2006_196" x1="-86.1762" y1="332.541" x2="303.266" y2="-56.327" gradientUnits="userSpaceOnUse">
<stop stop-color="#5E4C14"></stop>
<stop offset="0.06" stop-color="#7C6517"></stop>
<stop offset="0.19" stop-color="#BF9D43"></stop>
<stop offset="0.26" stop-color="#DAB355"></stop>
<stop offset="0.28" stop-color="#D0AA4E"></stop>
<stop offset="0.31" stop-color="#B5933E"></stop>
<stop offset="0.34" stop-color="#9E7F30"></stop>
<stop offset="0.42" stop-color="#72561A"></stop>
<stop offset="0.46" stop-color="#5D4310"></stop>
<stop offset="0.49" stop-color="#6C4F14"></stop>
<stop offset="0.55" stop-color="#95711E"></stop>
<stop offset="0.59" stop-color="#B28926"></stop>
<stop offset="0.62" stop-color="#BF9734"></stop>
<stop offset="0.65" stop-color="#C59E3B"></stop>
<stop offset="0.66" stop-color="#C8A342"></stop>
<stop offset="0.69" stop-color="#D2B455"></stop>
<stop offset="0.71" stop-color="#E3CF75"></stop>
<stop offset="0.73" stop-color="#F7F09C"></stop>
<stop offset="0.78" stop-color="#F8F19F"></stop>
<stop offset="0.82" stop-color="#E5D37E"></stop>
<stop offset="0.89" stop-color="#C6A348"></stop>
<stop offset="0.93" stop-color="#BB9133"></stop>
</linearGradient>
<clipPath id="clip0_2006_196">
<rect width="802" height="255" fill="white"></rect>
</clipPath>
<clipPath id="clip1_2006_196">
<rect width="174" height="256" fill="white"></rect>
</clipPath>
</defs>
</svg>